<?xml version="1.0" encoding="utf-8"?>
<!-- Generator: Adobe Illustrator 25.0.0, SVG Export Plug-In . SVG Version: 6.00 Build 0)  -->
<svg version="1.1" id="Layer_1" xmlns="http://www.w3.org/2000/svg" xmlns:xlink="http://www.w3.org/1999/xlink" x="0px" y="0px"
	 viewBox="0 0 2292 1506" style="enable-background:new 0 0 2292 1506;" xml:space="preserve">
<style type="text/css">
	.st0{fill:#73A942;}
</style>
<g>
	<g>
		<path class="st0" d="M1147.9,756.6l-3,12.6c35.9,40.3,57.3,73.3,50.5,80.1c-5.7,5.7-30-8.5-61.5-34.5c-3.2-2.6-6.4-5.3-9.7-8.1
			l11.5-47.6l3-12.6l8.3-34.5c2.4-0.4,4.7-1.4,6.5-3.3c4.5-4.5,4.5-11.9,0-16.4c-4.5-4.5-11.9-4.5-16.4,0c-1.8,1.8-2.9,4.2-3.3,6.5
			l-34.5,8.3l-12.6,3l-47.6,11.5c-2.8-3.3-5.5-6.5-8.1-9.7c-26-31.5-40.2-55.7-34.5-61.5c6.8-6.8,39.8,14.6,80.1,50.5l12.6-3
			c-54.1-48.2-102.3-75.5-114.8-63.1c-1.1,1.1-1.8,2.4-2.3,3.9c-0.2,0.6-0.3,1.3-0.5,1.9c0,0.1,0,0.1,0,0.1
			c-2.6,16.8,19.8,55.1,57,98.6c1.1,1.4,2.4,2.8,3.6,4.2c1.3,1.5,2.6,2.9,3.9,4.4c-39.8-29.6-66.2-64.4-66.2-64.4
			c4.5,36.6,23.1,76.8,54.1,112.3l-11.4,11.4c-7.1,7.1-7.1,18.5,0,25.6c1.2,1.2,2.7,2.2,4.1,3V878c-13.1,3.8-23.5,14.1-27.4,27.1h0
			l-117.7,11.7h115.9h40.5h40.5h115.9L1067,905.2h0c-3.9-13-14.3-23.3-27.4-27.1v-46l10.3-10.3c50.1,43.8,109.8,62.9,155.2,52.4
			c0,0,0.1,0,0.1,0c0.6-0.2,1.3-0.3,1.9-0.5c1.5-0.5,2.8-1.2,3.9-2.3C1223.4,858.9,1196.1,810.6,1147.9,756.6z M1069.3,754.7
			c-5.3-5.4-10.3-10.8-15.1-16.1c-2.9-3.2-5.8-6.4-8.6-9.5l48.8-11.7l12.6-3l24.5-5.9l-15.1,15.1l-7.7,7.7l-31.5,31.5
			C1074.5,760,1071.9,757.4,1069.3,754.7z M1107.4,791.8c-5.3-4.8-10.7-9.9-16.1-15.1c-2.7-2.6-5.4-5.2-8-7.9l31.5-31.5l7.7-7.7
			l15.1-15.1l-5.9,24.5l-3,12.6l-11.7,48.8C1113.8,797.7,1110.6,794.8,1107.4,791.8z"/>
		<g>
			<path class="st0" d="M1397.9,641.1l-17.9-32.3l-4.3-7.8l-11.6-20.9l-4.3-7.8l-11.6-20.9l-4.3-7.8l-4.2-7.6l-67.9,56.5
				c0,0,1.9,6.4,5.5,17.8c0.5,1.5,0.9,3.1,1.5,4.7c0.5,1.7,0.8,3.4,0.9,5.1c0.8,12.5-9.9,21-9.9,21l-4-7l-4.5-7.7l-10.6-18.3
				c0,0-8,4.9-13.2,7.9c-0.1,0-0.1,0-0.2,0.1c-2.3,1.3-4.9,0.7-6.5-0.9c-1.6-1.6-2.3-4.1-0.9-6.5c0,0,0.1-0.1,0.1-0.2
				c3-5.2,7.9-13.2,7.9-13.2l-18.3-10.6l-7.7-4.5l-7-4c0,0,8.5-10.7,20.9-9.9c1.6,0.1,3.3,0.4,5.1,0.9c1.6,0.5,3.2,1,4.7,1.5
				c11.4,3.5,17.8,5.5,17.8,5.5l56.5-67.9l-7.6-4.2l-7.8-4.3l-20.9-11.6l-7.8-4.3l-24.3-13.5l-4.4-2.4l-32.3-17.9
				c0,0,12.2-17.1,44.2-6.8c33.5,10.8,89.8,28.8,89.8,28.8c50-50,81.1-44,81.1-44s6,31.1-44,81.1c0,0,1.1,3.5,3,9.3
				c0.3,1,0.7,2.1,1.1,3.3c2.1,6.6,4.8,15.2,7.9,24.6c1,3,1.9,6.1,2.9,9.2c2.6,8.1,5.3,16.5,7.9,24.6c1,3.1,2,6.2,2.9,9.2
				c1.1,3.4,2.1,6.5,3.1,9.6C1415,628.9,1397.9,641.1,1397.9,641.1z"/>
			<polygon class="st0" points="1070.7,635.3 1229.6,476.5 1233.5,478.6 1073.8,638.4 			"/>
			<polygon class="st0" points="1093,657.6 1258.3,492.4 1262.2,494.5 1096.1,660.7 			"/>
			<path class="st0" d="M1287,508.2l3.9,2.2l-47.3,47.3c-0.5-0.1-4.7-1.4-4.7-1.4L1287,508.2z"/>
			<polygon class="st0" points="1288.3,602.3 1335.5,555 1337.7,558.9 1289.7,606.9 			"/>
			<polygon class="st0" points="1185.3,749.9 1351.4,583.7 1353.6,587.7 1188.3,752.9 			"/>
			<polygon class="st0" points="1207.6,772.2 1367.3,612.4 1369.5,616.4 1210.6,775.2 			"/>
		</g>
	</g>
	<g>
		<path class="st0" d="M646.8,1080.2c-20.6,0-34.8-11.6-34.8-30.8h19.6c0,8.7,7.2,12.8,15.1,12.8c7.3,0,14.4-3.9,14.4-10.5
			c0-7-8.2-8.9-17.9-11.1c-13.5-3.3-29.9-7.3-29.9-26.6c0-17.2,12.7-26.9,32.5-26.9c20.6,0,32.3,11,32.3,28.9H659
			c0-7.7-6.4-11.3-13.6-11.3c-6.3,0-12.7,2.7-12.7,8.5c0,6.3,7.8,8.2,17.3,10.5c13.7,3.5,30.8,7.7,30.8,27.8
			C680.8,1070.8,665.4,1080.2,646.8,1080.2L646.8,1080.2z"/>
		<path class="st0" d="M733.5,988.7c26.4,0,45.5,18.8,45.5,44.7c0,26-19.2,44.9-45.5,44.9h-33.9v-89.7L733.5,988.7z M733,1060.4
			c15.4,0,26.1-11.3,26.1-26.9c0-15.8-10.7-26.7-26.1-26.7h-14v53.7L733,1060.4z"/>
		<path class="st0" d="M847.1,1078.4l-17.5-30.6h-12.4v30.6h-19.4v-89.7h36.2c18,0,31.4,12.4,31.4,29.7c0,11.7-6.4,21.3-16.3,26.1
			l19.8,33.9L847.1,1078.4z M817.1,1006.7v23.2h15.5c8.1,0,13-4.9,13-11.6c0-6.7-4.8-11.6-13-11.6L817.1,1006.7z"/>
		<path class="st0" d="M936.9,1064.5h38.8v13.9h-53.5v-89.7h52.1v13.8h-37.4v23.4h34v13.5h-34V1064.5z"/>
		<path class="st0" d="M1031.1,1007.7c16.2,0,26.3,12.1,26.3,29.1v41.7h-14.2v-38.8c0-12.6-5.5-19.2-15.9-19.2
			c-10.9,0-18.6,8.7-18.6,21v37h-14.2v-69.2h9.9l2.8,9.7C1012.4,1011.9,1020.9,1007.6,1031.1,1007.7L1031.1,1007.7z"/>
		<path class="st0" d="M1118,1065.5v12.9h-10.6c-15.2,0-24.5-9.4-24.5-24.6v-32.4h-12.4v-2.8l24.1-25.6h2.4v16.1h20.6v12.2h-20.5
			v31.2c0,8.2,4.6,12.8,13,12.8L1118,1065.5z"/>
		<path class="st0" d="M1197.9,1036.7v41.7h-14.2v-38.8c0-12.5-5.4-19.2-15.9-19.2c-10.8,0-18.6,8.7-18.6,21v37H1135v-94h14.2v32.7
			c5.3-5.9,13.2-9.4,22.5-9.4C1187.8,1007.6,1197.9,1018.9,1197.9,1036.7z"/>
		<path class="st0" d="M1250.9,1080.1c-19,0-31.5-12.3-31.5-30.9v-40h14.2v38c0,12,6.6,19.3,17.2,19.3c10.8,0,17.2-7.4,17.2-19.3
			v-38h14.2v40C1282.3,1067.8,1269.9,1080.1,1250.9,1080.1L1250.9,1080.1z"/>
		<path class="st0" d="M1299.4,1056.4h13.9c0.4,7.3,6.5,11.1,14.8,11.1c7.6,0,13.5-3.2,13.5-9c0-6.6-7.4-8.1-15.9-9.5
			c-11.5-2-25.1-4.6-25.1-20.6c0-12.4,10.7-20.9,26.8-20.9c16.1,0,26.5,8.8,26.8,22.2h-13.5c-0.3-6.6-5.3-10.1-13.6-10.1
			c-7.9,0-12.7,3.3-12.7,8.4c0,6.1,7.1,7.3,15.4,8.7c11.7,2,25.9,4.2,25.9,21.3c0,13.4-11.2,22.2-28.1,22.2
			C1310.8,1080.1,1299.8,1070.8,1299.4,1056.4z"/>
		<path class="st0" d="M1374,998.5v-14.7h14.7v14.7H1374z M1374.2,1078.4v-69.2h14.2v69.2H1374.2z"/>
		<path class="st0" d="M1469.8,1009.2h11v69.2h-11.5l-1.4-8.4c-6.3,6.3-15,10.1-25.1,10.1c-20.6,0-36-15.6-36-36.3
			c0-20.8,15.4-36.2,36-36.2c10.2,0,19,3.9,25.3,10.3L1469.8,1009.2z M1466.5,1043.8c0-13-9.5-22.7-22.6-22.7
			c-13,0-22.7,9.7-22.7,22.7c0,12.9,9.6,22.7,22.7,22.7C1456.9,1066.5,1466.5,1056.8,1466.5,1043.8z"/>
		<path class="st0" d="M1499,1056.4h13.9c0.4,7.3,6.5,11.1,14.8,11.1c7.6,0,13.5-3.2,13.5-9c0-6.6-7.4-8.1-15.9-9.5
			c-11.5-2-25.1-4.6-25.1-20.6c0-12.4,10.7-20.9,26.8-20.9c16.1,0,26.5,8.8,26.8,22.2h-13.5c-0.3-6.6-5.3-10.1-13.6-10.1
			c-7.9,0-12.7,3.3-12.7,8.4c0,6.1,7.1,7.3,15.4,8.7c11.7,2,25.9,4.2,25.9,21.3c0,13.4-11.2,22.2-28.1,22.2
			C1510.4,1080.1,1499.4,1070.8,1499,1056.4z"/>
		<path class="st0" d="M1611.9,1065.5v12.9h-10.6c-15.2,0-24.5-9.4-24.5-24.6v-32.4h-12.4v-2.8l24.1-25.6h2.4v16.1h20.6v12.2H1591
			v31.2c0,8.2,4.6,12.8,13,12.8L1611.9,1065.5z"/>
		<path class="st0" d="M1623.6,1056.4h13.9c0.4,7.3,6.5,11.1,14.8,11.1c7.6,0,13.5-3.2,13.5-9c0-6.6-7.4-8.1-15.9-9.5
			c-11.5-2-25.1-4.6-25.1-20.6c0-12.4,10.7-20.9,26.8-20.9c16.1,0,26.5,8.8,26.8,22.2H1665c-0.3-6.6-5.3-10.1-13.6-10.1
			c-7.9,0-12.7,3.3-12.7,8.4c0,6.1,7.1,7.3,15.4,8.7c11.7,2,25.9,4.2,25.9,21.3c0,13.4-11.2,22.2-28.1,22.2
			C1635.1,1080.1,1624,1070.8,1623.6,1056.4z"/>
	</g>
</g>
</svg>
